<svg xmlns="http://www.w3.org/2000/svg" viewBox="0 0 48 48" width="24" height="24"><path fill="#EA4335" d="M24 9.5c3.5 0 6.1 1.5 7.5 2.8l5.5-5.4C34.6 4 29.8 2.5 24 2.5 14.9 2.5 7.3 7.9 4 15.3l6 4.6C11.7 15 17.3 9.5 24 9.5z"/><path fill="#4285F4" d="M46.5 24.5c0-1.6-.1-3.1-.4-4.6H24v9.1h12.7c-.6 3.5-2.6 6.5-5.5 8.5l6.1 4.7c3.6-3.3 5.6-8.2 5.6-13.7z"/><path fill="#FBBC05" d="M10 29.1c-.7-2-1.1-4.1-1.1-6.1s.4-4.1 1.1-6.1L4 12.3C2 15.8 1 19.7 1 24s1 8.2 3 11.7l6-6.6z"/><path fill="#34A853" d="M24 46.5c6.2 0 11.4-2 15.2-5.4l-6.1-4.7c-2 1.4-4.6 2.3-9.1 2.3-6.8 0-12.4-5.5-13.6-12.8l-6 4.6C7.3 40.6 14.9 46.5 24 46.5z"/><path fill="none" d="M0 0h48v48H0z"/></svg>